<svg width="633" height="494" viewBox="0 0 633 494" fill="none" xmlns="http://www.w3.org/2000/svg">
<g opacity="0.15">
<rect x="52.5" y="1.33594" width="539" height="337" rx="13.5" fill="#082344" stroke="#383838"/>
<path d="M90.2095 29.4446C90.2095 35.0277 85.6747 39.5536 80.0808 39.5536C74.4869 39.5536 69.9521 35.0277 69.9521 29.4446C69.9521 23.8615 74.4869 19.3356 80.0808 19.3356C85.6747 19.3356 90.2095 23.8615 90.2095 29.4446Z" fill="#FF4646"/>
<path d="M90.2095 29.4446C90.2095 35.0277 85.6747 39.5536 80.0808 39.5536C74.4869 39.5536 69.9521 35.0277 69.9521 29.4446C69.9521 23.8615 74.4869 19.3356 80.0808 19.3356C85.6747 19.3356 90.2095 23.8615 90.2095 29.4446Z" stroke="white"/>
<path d="M125.696 29.4446C125.696 35.0277 121.162 39.5536 115.568 39.5536C109.974 39.5536 105.439 35.0277 105.439 29.4446C105.439 23.8615 109.974 19.3356 115.568 19.3356C121.162 19.3356 125.696 23.8615 125.696 29.4446Z" fill="#DFF200"/>
<path d="M125.696 29.4446C125.696 35.0277 121.162 39.5536 115.568 39.5536C109.974 39.5536 105.439 35.0277 105.439 29.4446C105.439 23.8615 109.974 19.3356 115.568 19.3356C121.162 19.3356 125.696 23.8615 125.696 29.4446Z" stroke="white"/>
<path d="M161.183 29.4446C161.183 35.0277 156.648 39.5536 151.054 39.5536C145.461 39.5536 140.926 35.0277 140.926 29.4446C140.926 23.8615 145.461 19.3356 151.054 19.3356C156.648 19.3356 161.183 23.8615 161.183 29.4446Z" fill="#0FF542"/>
<path d="M161.183 29.4446C161.183 35.0277 156.648 39.5536 151.054 39.5536C145.461 39.5536 140.926 35.0277 140.926 29.4446C140.926 23.8615 145.461 19.3356 151.054 19.3356C156.648 19.3356 161.183 23.8615 161.183 29.4446Z" stroke="white"/>
</g>
<g opacity="0.59">
<rect x="21.7156" y="37.7166" width="588.978" height="369" rx="13.5" fill="#082344" stroke="#383838"/>
<circle cx="51.8953" cy="68.5338" r="11.0661" fill="#FF4646"/>
<circle cx="51.8953" cy="68.5338" r="11.0661" stroke="white"/>
<circle cx="90.6666" cy="68.5338" r="11.0661" fill="#DFF200"/>
<circle cx="90.6666" cy="68.5338" r="11.0661" stroke="white"/>
<circle cx="129.438" cy="68.5338" r="11.0661" fill="#0FF542"/>
<circle cx="129.438" cy="68.5338" r="11.0661" stroke="white"/>
</g>
<g filter="url(#filter0_b_288_177)">
<rect x="0.388489" y="72.1917" width="631.632" height="421.088" rx="13" fill="#000F21" fill-opacity="0.88"/>
<rect x="0.888489" y="72.6917" width="630.632" height="420.088" rx="12.5" stroke="#EBEBEB" stroke-opacity="0.26"/>
</g>
<rect x="334.463" y="177.468" width="269.604" height="271.598" rx="7" fill="#0B2D57"/>
<path d="M0.388489 85.1916C0.388489 78.0119 6.20879 72.1917 13.3885 72.1917H619.021C626.2 72.1917 632.021 78.0119 632.021 85.1917V152.198H0.388489V85.1916Z" fill="#005BC7" fill-opacity="0.39"/>
<circle cx="42.0357" cy="111.064" r="12.9588" fill="#FF4646"/>
<circle cx="42.0357" cy="111.064" r="12.9588" stroke="white"/>
<circle cx="87.4382" cy="111.064" r="12.9588" fill="#DFF200"/>
<circle cx="87.4382" cy="111.064" r="12.9588" stroke="white"/>
<circle cx="132.84" cy="111.064" r="12.9588" fill="#0FF542"/>
<circle cx="132.84" cy="111.064" r="12.9588" stroke="white"/>
<line x1="0.388489" y1="151.698" x2="632.021" y2="151.698" stroke="white" stroke-opacity="0.17"/>
<rect x="42.0357" y="211.217" width="269.604" height="40.1378" rx="7" fill="#0B2D57"/>
<rect x="42.0357" y="264.949" width="236.803" height="20.3936" rx="7" fill="#0B2D57"/>
<rect x="42.0357" y="296.521" width="236.803" height="15.1012" rx="7" fill="#0B2D57"/>
<rect x="42.0357" y="328.092" width="227.328" height="15.1012" rx="7" fill="#0B2D57"/>
<rect x="42.3785" y="359.664" width="157.547" height="54.0352" rx="7" fill="#005BC7"/>
<rect x="66.274" y="379.152" width="109.756" height="15.0601" rx="7" fill="#003676"/>
<circle cx="147.401" cy="392.377" r="27.7183" fill="#8B9D18" fill-opacity="0.21"/>
<circle cx="147.402" cy="392.377" r="44.5199" fill="#8B9D18" fill-opacity="0.21"/>
<circle cx="147.402" cy="392.377" r="56.7346" fill="#8B9D18" fill-opacity="0.21"/>
<path d="M122.453 463.304H197.453V388.304H122.453V463.304Z" fill="white"/>
<circle cx="592.497" cy="442.298" r="36.1937" fill="#00D1FF" fill-opacity="0.33"/>
<circle cx="592.497" cy="442.298" r="8.97448" fill="#00D1FF" fill-opacity="0.97" stroke="white"/>
<defs>
<filter id="filter0_b_288_177" x="-17.6115" y="54.1917" width="667.632" height="457.088" filterUnits="userSpaceOnUse" color-interpolation-filters="sRGB">
<feFlood flood-opacity="0" result="BackgroundImageFix"/>
<feGaussianBlur in="BackgroundImageFix" stdDeviation="9"/>
<feComposite in2="SourceAlpha" operator="in" result="effect1_backgroundBlur_288_177"/>
<feBlend mode="normal" in="SourceGraphic" in2="effect1_backgroundBlur_288_177" result="shape"/>
</filter>
</defs>
</svg>
