<svg width="151" height="141" viewBox="0 0 151 141" fill="none" xmlns="http://www.w3.org/2000/svg">
<rect x="0.937988" y="0.5" width="150" height="140" rx="17" fill="#0B2D57" fill-opacity="0.84"/>
<path d="M103.438 33.1667H48.4382C43.3755 33.1667 39.2715 37.3454 39.2715 42.5001V98.5001C39.2715 103.655 43.3755 107.833 48.4382 107.833H103.438C108.501 107.833 112.605 103.655 112.605 98.5001V42.5001C112.605 37.3454 108.501 33.1667 103.438 33.1667Z" stroke="#00D1FF" stroke-opacity="0.97" stroke-width="2" stroke-linecap="round" stroke-linejoin="round"/>
<path d="M89.688 56.5H62.188V84.5H89.688V56.5Z" stroke="#00D1FF" stroke-opacity="0.97" stroke-width="2" stroke-linecap="round" stroke-linejoin="round"/>
<path d="M62.188 19.1667V33.1667" stroke="#00D1FF" stroke-opacity="0.97" stroke-width="2" stroke-linecap="round" stroke-linejoin="round"/>
<path d="M89.688 19.1667V33.1667" stroke="#00D1FF" stroke-opacity="0.97" stroke-width="2" stroke-linecap="round" stroke-linejoin="round"/>
<path d="M62.188 107.833V121.833" stroke="#00D1FF" stroke-opacity="0.97" stroke-width="2" stroke-linecap="round" stroke-linejoin="round"/>
<path d="M89.688 107.833V121.833" stroke="#00D1FF" stroke-opacity="0.97" stroke-width="2" stroke-linecap="round" stroke-linejoin="round"/>
<path d="M112.604 56.5H126.354" stroke="#00D1FF" stroke-opacity="0.97" stroke-width="2" stroke-linecap="round" stroke-linejoin="round"/>
<path d="M112.604 79.8333H126.354" stroke="#00D1FF" stroke-opacity="0.97" stroke-width="2" stroke-linecap="round" stroke-linejoin="round"/>
<path d="M25.5215 56.5H39.2715" stroke="#00D1FF" stroke-opacity="0.97" stroke-width="2" stroke-linecap="round" stroke-linejoin="round"/>
<path d="M25.5215 79.8333H39.2715" stroke="#00D1FF" stroke-opacity="0.97" stroke-width="2" stroke-linecap="round" stroke-linejoin="round"/>
</svg>
