<svg width="643" height="559" viewBox="0 0 643 559" fill="none" xmlns="http://www.w3.org/2000/svg">
<rect x="0.5" y="0.595459" width="642" height="434.932" rx="13.5" fill="#082344" stroke="#383838"/>
<path d="M45.4976 36.9933C45.4976 44.1941 40.0979 50.0314 33.437 50.0314C26.7761 50.0314 21.3763 44.1941 21.3763 36.9933C21.3763 29.7926 26.7761 23.9553 33.437 23.9553C40.0979 23.9553 45.4976 29.7926 45.4976 36.9933Z" fill="#FF4646"/>
<path d="M45.4976 36.9933C45.4976 44.1941 40.0979 50.0314 33.437 50.0314C26.7761 50.0314 21.3763 44.1941 21.3763 36.9933C21.3763 29.7926 26.7761 23.9553 33.437 23.9553C40.0979 23.9553 45.4976 29.7926 45.4976 36.9933Z" stroke="white"/>
<path d="M87.7532 36.9933C87.7532 44.1941 82.3535 50.0314 75.6926 50.0314C69.0317 50.0314 63.632 44.1941 63.632 36.9933C63.632 29.7926 69.0317 23.9553 75.6926 23.9553C82.3535 23.9553 87.7532 29.7926 87.7532 36.9933Z" fill="#DFF200"/>
<path d="M87.7532 36.9933C87.7532 44.1941 82.3535 50.0314 75.6926 50.0314C69.0317 50.0314 63.632 44.1941 63.632 36.9933C63.632 29.7926 69.0317 23.9553 75.6926 23.9553C82.3535 23.9553 87.7532 29.7926 87.7532 36.9933Z" stroke="white"/>
<path d="M130.009 36.9933C130.009 44.1941 124.609 50.0314 117.948 50.0314C111.287 50.0314 105.888 44.1941 105.888 36.9933C105.888 29.7926 111.287 23.9553 117.948 23.9553C124.609 23.9553 130.009 29.7926 130.009 36.9933Z" fill="#0FF542"/>
<path d="M130.009 36.9933C130.009 44.1941 124.609 50.0314 117.948 50.0314C111.287 50.0314 105.888 44.1941 105.888 36.9933C105.888 29.7926 111.287 23.9553 117.948 23.9553C124.609 23.9553 130.009 29.7926 130.009 36.9933Z" stroke="white"/>
<path d="M116.419 149.159C113.594 157.482 118.368 174.127 160.067 174.127C181.085 174.127 181.82 199.716 179.56 212.511V274.372C178.712 284.185 186.086 303.812 222.36 303.812C258.634 303.812 261.77 303.812 258.804 303.812C271.799 303.066 297.875 305.824 298.214 322.817C298.553 339.81 298.355 350.518 298.214 353.748M124.47 253.876V289.651C123.905 304.806 128.454 334.966 151.168 334.37C173.881 333.773 232.389 334.121 258.804 334.37C267.985 332.755 285.925 334.37 284.23 353.748M258.804 149.159C256.685 156.737 260.584 171.593 293.129 170.401C300.756 168.662 315.758 170.923 314.741 193.878C313.724 216.834 314.317 313.252 314.741 358.592M258.804 253.876C256.544 261.702 257.278 277.428 278.297 277.726C304.57 278.099 305.842 287.415 305.842 295.613C305.842 302.172 305.842 337.102 305.842 353.748M393.137 149.159C395.256 156.24 392.544 170.401 364.745 170.401C329.996 170.401 330.42 181.208 330.844 193.878C331.183 204.014 330.985 307.911 330.844 358.592M393.137 253.876C394.919 261.826 391.735 277.726 364.745 277.726C354.151 277.726 349.913 277.353 349.066 295.613C348.388 310.221 348.783 343.686 349.066 358.592M528.318 149.159C530.295 157.482 524.335 174.127 484.67 174.127C459.244 174.127 453.312 181.208 453.312 212.511C453.312 237.554 453.312 254.497 453.312 259.838C455.713 271.763 450.515 295.613 410.511 295.613C393.137 295.613 364.745 287.415 364.745 310.892C364.745 329.674 364.745 350.518 364.745 358.592M528.318 253.876C528.318 322.817 533.403 310.892 459.244 310.892H404.579C394.832 308.905 375.678 308.507 377.034 322.817C378.39 337.127 377.599 356.605 377.034 364.555L364.745 372.008" stroke="url(#paint0_linear_288_311)" stroke-width="5" stroke-linejoin="round" stroke-dasharray="10 6"/>
<path fill-rule="evenodd" clip-rule="evenodd" d="M287.45 344.431C281.927 344.431 277.45 348.908 277.45 354.431V361.616C277.45 361.632 277.45 361.647 277.45 361.663V400.72C277.45 406.242 281.927 410.72 287.45 410.72H379.323C384.846 410.72 389.323 406.242 389.323 400.72V361.663C389.323 356.14 384.846 351.663 379.323 351.663H316.057C314.857 347.486 311.008 344.431 306.446 344.431H287.45Z" fill="#ACABAB"/>
<path fill-rule="evenodd" clip-rule="evenodd" d="M287.45 344.431C281.927 344.431 277.45 348.908 277.45 354.431V361.616C277.45 361.632 277.45 361.647 277.45 361.663V400.72C277.45 406.242 281.927 410.72 287.45 410.72H379.323C384.846 410.72 389.323 406.242 389.323 400.72V361.663C389.323 356.14 384.846 351.663 379.323 351.663H316.057C314.857 347.486 311.008 344.431 306.446 344.431H287.45Z" fill="url(#paint1_linear_288_311)"/>
<ellipse cx="303.069" cy="407.439" rx="17.0721" ry="12.2688" fill="#DFF200"/>
<path fill-rule="evenodd" clip-rule="evenodd" d="M287.45 483.059C281.927 483.059 277.45 487.536 277.45 493.059V500.244C277.45 500.26 277.45 500.275 277.45 500.291V539.348C277.45 544.871 281.927 549.348 287.45 549.348H357.324C362.847 549.348 367.324 544.871 367.324 539.348V500.291C367.324 494.768 362.847 490.291 357.324 490.291H308.389C307.189 486.115 303.34 483.059 298.777 483.059H287.45Z" fill="#ACABAB"/>
<path fill-rule="evenodd" clip-rule="evenodd" d="M287.45 483.059C281.927 483.059 277.45 487.536 277.45 493.059V500.244C277.45 500.26 277.45 500.275 277.45 500.291V539.348C277.45 544.871 281.927 549.348 287.45 549.348H357.324C362.847 549.348 367.324 544.871 367.324 539.348V500.291C367.324 494.768 362.847 490.291 357.324 490.291H308.389C307.189 486.115 303.34 483.059 298.777 483.059H287.45Z" fill="url(#paint2_linear_288_311)"/>
<ellipse cx="298.031" cy="546.067" rx="13.715" ry="12.2688" fill="#0FF542"/>
<path fill-rule="evenodd" clip-rule="evenodd" d="M211.306 81.3359C209.097 81.3359 207.306 83.1268 207.306 85.3359V92.7741C207.306 92.7779 207.306 92.7816 207.306 92.7853V145.621C207.306 147.83 209.097 149.621 211.306 149.621H295.888C298.097 149.621 299.888 147.83 299.888 145.621V92.7853C299.888 90.5762 298.097 88.7853 295.888 88.7853H239.577V85.3359C239.577 83.1268 237.787 81.3359 235.577 81.3359H211.306Z" fill="#ACABAB"/>
<path fill-rule="evenodd" clip-rule="evenodd" d="M211.306 81.3359C209.097 81.3359 207.306 83.1268 207.306 85.3359V92.7741C207.306 92.7779 207.306 92.7816 207.306 92.7853V145.621C207.306 147.83 209.097 149.621 211.306 149.621H295.888C298.097 149.621 299.888 147.83 299.888 145.621V92.7853C299.888 90.5762 298.097 88.7853 295.888 88.7853H239.577V85.3359C239.577 83.1268 237.787 81.3359 235.577 81.3359H211.306Z" fill="url(#paint3_linear_288_311)"/>
<ellipse cx="228.507" cy="146.242" rx="14.1281" ry="12.6384" fill="#FF0303" fill-opacity="0.82"/>
<path fill-rule="evenodd" clip-rule="evenodd" d="M211.306 185.711C209.097 185.711 207.306 187.502 207.306 189.711V197.15C207.306 197.153 207.306 197.157 207.306 197.161V249.997C207.306 252.206 209.097 253.997 211.306 253.997H295.888C298.097 253.997 299.888 252.206 299.888 249.997V197.161C299.888 194.952 298.097 193.161 295.888 193.161H239.577V189.711C239.577 187.502 237.787 185.711 235.577 185.711H211.306Z" fill="#ACABAB"/>
<path fill-rule="evenodd" clip-rule="evenodd" d="M211.306 185.711C209.097 185.711 207.306 187.502 207.306 189.711V197.15C207.306 197.153 207.306 197.157 207.306 197.161V249.997C207.306 252.206 209.097 253.997 211.306 253.997H295.888C298.097 253.997 299.888 252.206 299.888 249.997V197.161C299.888 194.952 298.097 193.161 295.888 193.161H239.577V189.711C239.577 187.502 237.787 185.711 235.577 185.711H211.306Z" fill="url(#paint4_linear_288_311)"/>
<ellipse cx="228.507" cy="250.617" rx="14.1281" ry="12.6384" fill="#0FF542"/>
<path fill-rule="evenodd" clip-rule="evenodd" d="M347.112 185.711C344.903 185.711 343.112 187.502 343.112 189.711V197.145C343.112 197.15 343.112 197.155 343.112 197.161V249.997C343.112 252.206 344.903 253.997 347.112 253.997H431.694C433.903 253.997 435.694 252.206 435.694 249.997V197.161C435.694 194.952 433.903 193.161 431.694 193.161H375.383V189.711C375.383 187.502 373.593 185.711 371.383 185.711H347.112Z" fill="#ACABAB"/>
<path fill-rule="evenodd" clip-rule="evenodd" d="M347.112 185.711C344.903 185.711 343.112 187.502 343.112 189.711V197.145C343.112 197.15 343.112 197.155 343.112 197.161V249.997C343.112 252.206 344.903 253.997 347.112 253.997H431.694C433.903 253.997 435.694 252.206 435.694 249.997V197.161C435.694 194.952 433.903 193.161 431.694 193.161H375.383V189.711C375.383 187.502 373.593 185.711 371.383 185.711H347.112Z" fill="url(#paint5_linear_288_311)"/>
<ellipse cx="364.313" cy="250.617" rx="14.1281" ry="12.6384" fill="#00D1FF" fill-opacity="0.97"/>
<path fill-rule="evenodd" clip-rule="evenodd" d="M75.5 81.3359C73.2909 81.3359 71.5 83.1268 71.5 85.3359V92.7853V138.172V145.621C71.5 147.83 73.2909 149.621 75.5 149.621H160.082C162.291 149.621 164.082 147.83 164.082 145.621V92.7853C164.082 90.5762 162.291 88.7853 160.082 88.7853H103.771V85.3359C103.771 83.1268 101.981 81.3359 99.7714 81.3359H75.5Z" fill="url(#paint6_linear_288_311)"/>
<ellipse cx="94.3973" cy="146.242" rx="14.1281" ry="12.6384" fill="#0FF542"/>
<path fill-rule="evenodd" clip-rule="evenodd" d="M75.5 185.711C73.2909 185.711 71.5 187.502 71.5 189.711V197.161V242.547V249.997C71.5 252.206 73.2909 253.997 75.5 253.997H160.082C162.291 253.997 164.082 252.206 164.082 249.997V197.161C164.082 194.952 162.291 193.161 160.082 193.161H103.771V189.711C103.771 187.502 101.981 185.711 99.7714 185.711H75.5Z" fill="#ACABAB"/>
<path fill-rule="evenodd" clip-rule="evenodd" d="M75.5 185.711C73.2909 185.711 71.5 187.502 71.5 189.711V197.161V242.547V249.997C71.5 252.206 73.2909 253.997 75.5 253.997H160.082C162.291 253.997 164.082 252.206 164.082 249.997V197.161C164.082 194.952 162.291 193.161 160.082 193.161H103.771V189.711C103.771 187.502 101.981 185.711 99.7714 185.711H75.5Z" fill="url(#paint7_linear_288_311)"/>
<ellipse cx="94.3973" cy="250.617" rx="14.1281" ry="12.6384" fill="#0FF542"/>
<path fill-rule="evenodd" clip-rule="evenodd" d="M482.918 81.3359C480.709 81.3359 478.918 83.1268 478.918 85.3359V92.7695C478.918 92.7748 478.918 92.78 478.918 92.7853V145.621C478.918 147.83 480.709 149.621 482.918 149.621H567.5C569.709 149.621 571.5 147.83 571.5 145.621V92.7853C571.5 90.5762 569.709 88.7853 567.5 88.7853H511.189V85.3359C511.189 83.1268 509.399 81.3359 507.189 81.3359H482.918Z" fill="#ACABAB"/>
<path fill-rule="evenodd" clip-rule="evenodd" d="M482.918 81.3359C480.709 81.3359 478.918 83.1268 478.918 85.3359V92.7695C478.918 92.7748 478.918 92.78 478.918 92.7853V145.621C478.918 147.83 480.709 149.621 482.918 149.621H567.5C569.709 149.621 571.5 147.83 571.5 145.621V92.7853C571.5 90.5762 569.709 88.7853 567.5 88.7853H511.189V85.3359C511.189 83.1268 509.399 81.3359 507.189 81.3359H482.918Z" fill="url(#paint8_linear_288_311)"/>
<ellipse cx="501.815" cy="146.242" rx="14.1281" ry="12.6384" fill="#0FF542"/>
<path fill-rule="evenodd" clip-rule="evenodd" d="M347.112 81.3359C344.903 81.3359 343.112 83.1268 343.112 85.3359V92.7695C343.112 92.7748 343.112 92.78 343.112 92.7853V145.621C343.112 147.83 344.903 149.621 347.112 149.621H431.694C433.903 149.621 435.694 147.83 435.694 145.621V92.7853C435.694 90.5762 433.903 88.7853 431.694 88.7853H375.383V85.3359C375.383 83.1268 373.593 81.3359 371.383 81.3359H347.112Z" fill="#ACABAB"/>
<path fill-rule="evenodd" clip-rule="evenodd" d="M347.112 81.3359C344.903 81.3359 343.112 83.1268 343.112 85.3359V92.7695C343.112 92.7748 343.112 92.78 343.112 92.7853V145.621C343.112 147.83 344.903 149.621 347.112 149.621H431.694C433.903 149.621 435.694 147.83 435.694 145.621V92.7853C435.694 90.5762 433.903 88.7853 431.694 88.7853H375.383V85.3359C375.383 83.1268 373.593 81.3359 371.383 81.3359H347.112Z" fill="url(#paint9_linear_288_311)"/>
<ellipse cx="367.002" cy="146.242" rx="14.1281" ry="12.6384" fill="#0FF542"/>
<path fill-rule="evenodd" clip-rule="evenodd" d="M482.918 185.711C480.709 185.711 478.918 187.502 478.918 189.711V197.145C478.918 197.15 478.918 197.155 478.918 197.161V249.997C478.918 252.206 480.709 253.997 482.918 253.997H567.5C569.709 253.997 571.5 252.206 571.5 249.997V197.161C571.5 194.952 569.709 193.161 567.5 193.161H511.189V189.711C511.189 187.502 509.399 185.711 507.189 185.711H482.918Z" fill="#ACABAB"/>
<path fill-rule="evenodd" clip-rule="evenodd" d="M482.918 185.711C480.709 185.711 478.918 187.502 478.918 189.711V197.145C478.918 197.15 478.918 197.155 478.918 197.161V249.997C478.918 252.206 480.709 253.997 482.918 253.997H567.5C569.709 253.997 571.5 252.206 571.5 249.997V197.161C571.5 194.952 569.709 193.161 567.5 193.161H511.189V189.711C511.189 187.502 509.399 185.711 507.189 185.711H482.918Z" fill="url(#paint10_linear_288_311)"/>
<ellipse cx="502.808" cy="250.617" rx="14.1281" ry="12.6384" fill="#FF0303" fill-opacity="0.82"/>
<line x1="335.386" y1="413.509" x2="335.386" y2="487.022" stroke="url(#paint11_angular_288_311)" stroke-width="4" stroke-linecap="round" stroke-dasharray="8 8"/>
<defs>
<linearGradient id="paint0_linear_288_311" x1="322.204" y1="149.159" x2="322.204" y2="372.008" gradientUnits="userSpaceOnUse">
<stop offset="0.473958" stop-color="#01D1FF" stop-opacity="0.97"/>
<stop offset="1" stop-color="#0FF542"/>
</linearGradient>
<linearGradient id="paint1_linear_288_311" x1="296.948" y1="344.431" x2="296.948" y2="403.488" gradientUnits="userSpaceOnUse">
<stop stop-color="#01D1FF" stop-opacity="0.97"/>
<stop offset="1" stop-color="#005BC7"/>
</linearGradient>
<linearGradient id="paint2_linear_288_311" x1="293.113" y1="483.059" x2="293.113" y2="542.116" gradientUnits="userSpaceOnUse">
<stop stop-color="#01D1FF" stop-opacity="0.97"/>
<stop offset="1" stop-color="#005BC7"/>
</linearGradient>
<linearGradient id="paint3_linear_288_311" x1="223.442" y1="81.3359" x2="223.442" y2="142.172" gradientUnits="userSpaceOnUse">
<stop stop-color="#01D1FF" stop-opacity="0.97"/>
<stop offset="1" stop-color="#005BC7"/>
</linearGradient>
<linearGradient id="paint4_linear_288_311" x1="223.442" y1="185.711" x2="223.442" y2="246.547" gradientUnits="userSpaceOnUse">
<stop stop-color="#01D1FF" stop-opacity="0.97"/>
<stop offset="1" stop-color="#005BC7"/>
</linearGradient>
<linearGradient id="paint5_linear_288_311" x1="359.248" y1="185.711" x2="359.248" y2="246.547" gradientUnits="userSpaceOnUse">
<stop stop-color="#01D1FF" stop-opacity="0.97"/>
<stop offset="1" stop-color="#005BC7"/>
</linearGradient>
<linearGradient id="paint6_linear_288_311" x1="87.6357" y1="81.3359" x2="87.6357" y2="142.172" gradientUnits="userSpaceOnUse">
<stop stop-color="#01D1FF" stop-opacity="0.97"/>
<stop offset="1" stop-color="#005BC7"/>
</linearGradient>
<linearGradient id="paint7_linear_288_311" x1="87.6357" y1="185.711" x2="87.6357" y2="246.547" gradientUnits="userSpaceOnUse">
<stop stop-color="#01D1FF" stop-opacity="0.97"/>
<stop offset="1" stop-color="#005BC7"/>
</linearGradient>
<linearGradient id="paint8_linear_288_311" x1="495.054" y1="81.3359" x2="495.054" y2="142.172" gradientUnits="userSpaceOnUse">
<stop stop-color="#01D1FF" stop-opacity="0.97"/>
<stop offset="1" stop-color="#005BC7"/>
</linearGradient>
<linearGradient id="paint9_linear_288_311" x1="359.248" y1="81.3359" x2="359.248" y2="142.172" gradientUnits="userSpaceOnUse">
<stop stop-color="#01D1FF" stop-opacity="0.97"/>
<stop offset="1" stop-color="#005BC7"/>
</linearGradient>
<linearGradient id="paint10_linear_288_311" x1="495.054" y1="185.711" x2="495.054" y2="246.547" gradientUnits="userSpaceOnUse">
<stop stop-color="#01D1FF" stop-opacity="0.97"/>
<stop offset="1" stop-color="#005BC7"/>
</linearGradient>
<radialGradient id="paint11_angular_288_311" cx="0" cy="0" r="1" gradientUnits="userSpaceOnUse" gradientTransform="translate(332.886 450.266) rotate(180) scale(0.5 38.7563)">
<stop stop-color="#00D1FF" stop-opacity="0.97"/>
<stop offset="0.0107459" stop-color="#02FC39"/>
</radialGradient>
</defs>
</svg>
