<svg width="263" height="121" viewBox="0 0 263 121" fill="none" xmlns="http://www.w3.org/2000/svg">
<g filter="url(#filter0_b_22_60)">
<rect x="-6.10352e-05" y="70.9726" width="50.2227" height="49.45" rx="8" fill="black" fill-opacity="0.4"/>
<path d="M17.7994 76.5285C16.7811 76.5285 15.8366 76.7708 14.9999 77.2829C12.3852 78.8879 11.3899 82.7991 11.9173 87.6686C7.68777 89.6179 4.99994 92.4881 4.99994 95.6976C4.99994 98.9071 7.68777 101.777 11.9173 103.727C11.3902 108.596 12.3852 112.507 14.9999 114.112C15.8349 114.624 16.7794 114.867 17.7994 114.867C19.9705 114.867 22.4797 113.708 24.9999 111.721C27.5204 113.708 30.0327 114.867 32.2037 114.867C33.222 114.867 34.1665 114.624 35.0032 114.112C37.618 112.507 38.6132 108.596 38.0859 103.727C42.3138 101.777 44.9999 98.9064 44.9999 95.6976C44.9999 92.4881 42.3121 89.6179 38.0826 87.6686C38.6097 82.7993 37.6147 78.8879 34.9999 77.2829C34.1649 76.769 33.2205 76.5285 32.2005 76.5285C30.0294 76.5285 27.5202 77.6869 24.9999 79.6743C22.4795 77.6869 19.9697 76.5285 17.7994 76.5285ZM17.7994 79.6293C19.1021 79.6293 20.8249 80.3657 22.6953 81.73C21.5956 82.8333 20.5185 84.0879 19.4824 85.4849C17.8017 85.7411 16.2172 86.1146 14.7493 86.582C14.7414 86.4737 14.7227 86.3602 14.7167 86.2532C14.5384 83.0992 15.1899 80.7481 16.4583 79.9684C16.8333 79.7381 17.2711 79.6293 17.7994 79.6293ZM32.2005 79.6293C32.7271 79.6293 33.1666 79.7381 33.5416 79.9684C34.8099 80.7463 35.4615 83.0992 35.2831 86.2532C35.2771 86.3602 35.2585 86.4737 35.2506 86.582C33.7818 86.1143 32.1961 85.7411 30.5143 85.4849C29.4781 84.0881 28.4043 82.8332 27.3046 81.73C29.1749 80.3659 30.8984 79.6293 32.2005 79.6293ZM24.9999 83.6991C25.4517 84.1363 25.9004 84.5984 26.3541 85.1042C25.9045 85.0882 25.4572 85.0661 24.9999 85.0661C24.5437 85.0661 24.0976 85.0882 23.649 85.1042C24.1023 84.5989 24.5486 84.1359 24.9999 83.6991ZM24.9999 88.167C26.3811 88.167 27.6902 88.2491 28.9322 88.3919C29.6897 89.4865 30.4362 90.6438 31.136 91.9323C31.8067 93.1674 32.3998 94.4315 32.9231 95.6976C32.3998 96.9644 31.8071 98.2305 31.136 99.4664C30.4384 100.751 29.6937 101.901 28.9387 102.993C27.6528 103.142 26.3336 103.228 24.9999 103.228C23.6188 103.228 22.3097 103.146 21.0676 103.003C20.3102 101.909 19.5636 100.755 18.8639 99.4664C18.1927 98.2305 17.6003 96.9644 17.0768 95.6976C17.5999 94.4315 18.1931 93.1674 18.8639 91.9323C19.5617 90.6475 20.306 89.4942 21.0611 88.4023C22.3471 88.2527 23.6662 88.167 24.9999 88.167ZM32.9101 89.1256C33.5713 89.2953 34.207 89.4786 34.8046 89.6828C34.6692 90.3332 34.5037 90.996 34.3163 91.6658C34.1019 91.2379 33.8939 90.8087 33.662 90.3819C33.4235 89.9428 33.1587 89.5483 32.9101 89.1256ZM17.0865 89.1291C16.8388 89.5504 16.5756 89.9442 16.3378 90.3819C16.106 90.8088 15.8979 91.2379 15.6835 91.6658C15.4958 90.9946 15.3275 90.331 15.192 89.6793C15.8006 89.4749 16.4347 89.2939 17.0865 89.1291ZM12.4479 90.8179C12.799 92.3942 13.2862 94.0283 13.9127 95.6941C13.2875 97.356 12.8024 98.987 12.4511 100.56C9.54866 99.0699 7.91661 97.215 7.91661 95.6976C7.91661 94.1401 9.50306 92.3651 12.1614 90.9529C12.2521 90.9046 12.3551 90.865 12.4479 90.8179ZM37.5488 90.8352C40.4512 92.3253 42.0833 94.1802 42.0833 95.6976C42.0833 97.2551 40.4968 99.0301 37.8385 100.442C37.7477 100.491 37.6447 100.53 37.552 100.577C37.2007 99 36.7175 97.3644 36.0904 95.6976C36.7149 94.0372 37.1978 92.4068 37.5488 90.8352ZM24.9999 92.1538C23.1583 92.1538 21.6666 93.7396 21.6666 95.6976C21.6666 97.6555 23.1583 99.2414 24.9999 99.2414C26.8416 99.2414 28.3333 97.6555 28.3333 95.6976C28.3333 93.7396 26.8416 92.1538 24.9999 92.1538ZM15.6835 99.7294C15.8981 100.157 16.1091 100.586 16.3411 101.013C16.5794 101.452 16.8415 101.847 17.0898 102.27C16.4285 102.1 15.7928 101.917 15.1953 101.712C15.3307 101.062 15.4961 100.4 15.6835 99.7294ZM34.3163 99.7328C34.5039 100.403 34.6725 101.065 34.8079 101.716C34.1993 101.92 33.5652 102.101 32.9133 102.266C33.1611 101.845 33.4243 101.451 33.662 101.013C33.8933 100.587 34.1024 100.16 34.3163 99.7328ZM14.7493 104.813C16.2181 105.281 17.8038 105.654 19.4856 105.91C20.5221 107.308 21.5951 108.565 22.6953 109.669C20.825 111.033 19.1021 111.769 17.7994 111.769C17.2728 111.769 16.8333 111.657 16.4583 111.427C15.1899 110.649 14.5384 108.299 14.7167 105.145C14.7228 105.037 14.7413 104.923 14.7493 104.813ZM35.2506 104.813C35.2586 104.923 35.2771 105.037 35.2831 105.145C35.4615 108.299 34.8099 110.647 33.5416 111.427C33.1666 111.657 32.7288 111.769 32.2005 111.769C30.8978 111.769 29.1749 111.033 27.3046 109.669C28.4049 108.565 29.4808 107.308 30.5175 105.91C32.1981 105.654 33.7827 105.281 35.2506 104.813ZM23.6458 106.291C24.0954 106.307 24.5427 106.329 24.9999 106.329C25.4572 106.329 25.9045 106.307 26.3541 106.291C25.9004 106.797 25.4517 107.259 24.9999 107.696C24.5481 107.259 24.0995 106.797 23.6458 106.291Z" fill="white"/>
<rect x="71" width="50.2227" height="49.45" rx="8" fill="black" fill-opacity="0.4"/>
<path d="M91.3333 9C89.492 9 88 10.492 88 12.3333C88 14.1747 89.492 15.6667 91.3333 15.6667H94.6667V12.3333C94.6667 10.492 93.1747 9 91.3333 9ZM99.3333 9C97.492 9 96 10.492 96 12.3333V20.3333C96 22.1747 97.492 23.6667 99.3333 23.6667C101.175 23.6667 102.667 22.1747 102.667 20.3333V12.3333C102.667 10.492 101.175 9 99.3333 9ZM83.3333 17C81.492 17 80 18.492 80 20.3333C80 22.1747 81.492 23.6667 83.3333 23.6667H91.3333C93.1747 23.6667 94.6667 22.1747 94.6667 20.3333C94.6667 18.492 93.1747 17 91.3333 17H83.3333ZM107.333 17C105.492 17 104 18.492 104 20.3333V23.6667H107.333C109.175 23.6667 110.667 22.1747 110.667 20.3333C110.667 18.492 109.175 17 107.333 17ZM83.3333 25C81.492 25 80 26.492 80 28.3333C80 30.1747 81.492 31.6667 83.3333 31.6667C85.1747 31.6667 86.6667 30.1747 86.6667 28.3333V25H83.3333ZM91.3333 25C89.492 25 88 26.492 88 28.3333V36.3333C88 38.1747 89.492 39.6667 91.3333 39.6667C93.1747 39.6667 94.6667 38.1747 94.6667 36.3333V28.3333C94.6667 26.492 93.1747 25 91.3333 25ZM99.3333 25C97.492 25 96 26.492 96 28.3333C96 30.1747 97.492 31.6667 99.3333 31.6667H107.333C109.175 31.6667 110.667 30.1747 110.667 28.3333C110.667 26.492 109.175 25 107.333 25H99.3333ZM96 33V36.3333C96 38.1747 97.492 39.6667 99.3333 39.6667C101.175 39.6667 102.667 38.1747 102.667 36.3333C102.667 34.492 101.175 33 99.3333 33H96Z" fill="white"/>
<rect x="71" y="69.275" width="50.2227" height="49.45" rx="8" fill="black" fill-opacity="0.4"/>
<path d="M111.619 74.8312C111.334 74.4823 110.929 74.2832 110.503 74.2832H81.4978C81.0724 74.2832 80.6665 74.4823 80.3819 74.8312C80.0974 75.1801 79.9626 75.6459 80.009 76.11L83.307 108.735C83.3729 109.398 83.7998 109.953 84.3839 110.136L95.5871 113.653C95.7219 113.695 95.8612 113.717 95.999 113.717C96.1368 113.717 96.2761 113.695 96.4109 113.653L107.614 110.136C108.198 109.953 108.624 109.398 108.691 108.735L111.99 76.11C112.038 75.6459 111.904 75.1801 111.619 74.8312ZM104.431 86.5116H91.0564L91.3739 90.6952H104.109L103.154 103.055L96.005 105.554L95.9346 105.529L88.8652 103.052L88.4788 98.0158H91.9416L92.0929 99.9726L96.0424 100.929L99.9231 99.971L100.335 94.683H88.2182L87.2806 82.5122H104.743L104.431 86.5116Z" fill="white"/>
<rect x="141" width="50.2227" height="49.45" rx="8" fill="black" fill-opacity="0.4"/>
<path d="M160.611 44.7168C157.788 44.7168 155.5 42.1945 155.5 39.0834C155.5 35.9724 157.788 33.4501 160.611 33.4501H164.262C165.068 33.4501 165.722 34.1711 165.722 35.0598V39.0834C165.722 42.1945 163.434 44.7168 160.611 44.7168ZM173.389 16.5499H169.738C168.932 16.5499 168.278 15.8289 168.278 14.9402V6.89292C168.278 6.00425 168.932 5.28318 169.738 5.28318H173.389C176.212 5.28318 178.5 7.80552 178.5 10.9166C178.5 14.0276 176.212 16.5499 173.389 16.5499ZM160.611 5.28318H164.262C165.068 5.28318 165.722 6.00425 165.722 6.89292V14.9402C165.722 15.8289 165.068 16.5499 164.262 16.5499H160.611C157.788 16.5499 155.5 14.0276 155.5 10.9166C155.5 7.80552 157.788 5.28318 160.611 5.28318ZM160.611 19.3666H164.262C165.068 19.3666 165.722 20.0877 165.722 20.9764V29.0236C165.722 29.9123 165.068 30.6334 164.262 30.6334H160.611C157.788 30.6334 155.5 28.111 155.5 25C155.5 21.889 157.788 19.3666 160.611 19.3666ZM173.389 19.3666C172.033 19.3666 170.733 19.9601 169.775 21.0166C168.816 22.0731 168.278 23.5059 168.278 25C168.278 26.4941 168.816 27.9269 169.775 28.9834C170.733 30.0399 172.033 30.6334 173.389 30.6334C174.744 30.6334 176.044 30.0399 177.003 28.9834C177.962 27.9269 178.5 26.4941 178.5 25C178.5 23.5059 177.962 22.0731 177.003 21.0166C176.044 19.9601 174.744 19.3666 173.389 19.3666V19.3666Z" fill="white"/>
<rect x="141" y="69" width="50.2227" height="49.45" rx="8" fill="black" fill-opacity="0.4"/>
<path d="M182.066 72.1469H150.157C148.198 72.1469 146.611 73.8849 146.611 76.0306V110.983C146.611 113.129 148.198 114.867 150.157 114.867H182.066C184.025 114.867 185.611 113.129 185.611 110.983V76.0306C185.611 73.8849 184.025 72.1469 182.066 72.1469ZM166.111 103.954C166.111 107.404 164.179 109.338 160.97 109.338C157.801 109.338 155.782 107.309 155.782 104.028H159.215C159.224 105.245 159.887 106.014 160.912 106.014C161.965 106.014 162.53 105.288 162.53 103.921V93.5029H166.111V103.954ZM175.828 109.338C172.266 109.338 170.026 107.501 169.965 104.53H173.38C173.466 105.653 174.489 106.367 175.973 106.367C177.31 106.367 178.228 105.663 178.228 104.647C178.228 103.793 177.613 103.332 176.003 102.981L174.151 102.575C171.575 102.041 170.249 100.503 170.249 98.0778C170.249 95.0642 172.454 93.0874 175.847 93.0874C179.144 93.0874 181.426 95.0428 181.484 97.8953H178.178C178.1 96.806 177.154 96.0467 175.893 96.0467C174.636 96.0467 173.809 96.6992 173.809 97.7244C173.809 98.5691 174.433 99.0604 175.915 99.3808L177.726 99.7653C180.508 100.354 181.756 101.73 181.756 104.177C181.757 107.395 179.515 109.338 175.828 109.338Z" fill="white"/>
<rect x="211" width="50.2227" height="49.45" rx="8" fill="black" fill-opacity="0.4"/>
<path d="M252.218 5.84646C251.925 5.48786 251.506 5.28318 251.068 5.28318H221.156C220.717 5.28318 220.299 5.48786 220.005 5.84646C219.712 6.20506 219.573 6.68377 219.621 7.16078L223.022 40.6919C223.09 41.3736 223.53 41.9437 224.132 42.1314L235.686 45.7462C235.825 45.7902 235.968 45.8122 236.11 45.8122C236.252 45.8122 236.396 45.7902 236.535 45.7462L248.088 42.1314C248.691 41.9437 249.129 41.3736 249.199 40.6919L252.602 7.16078C252.651 6.68377 252.512 6.20506 252.218 5.84646ZM244.632 22.3236L243.943 34.6464L236.161 37.4324L228.38 34.6464L228.085 28.7531H232.023L232.122 31.4325L236.161 32.9329L240.2 31.4325L240.495 26.6117H231.827L231.631 22.3253H240.693L240.988 18.039H227.394L227.099 13.751H245.124L244.632 22.3236Z" fill="white"/>
<rect x="-6.10352e-05" width="50.2227" height="49.45" rx="8" fill="black" fill-opacity="0.4"/>
<path d="M24.5 6.5C14.5595 6.5 6.5 14.5595 6.5 24.5C6.5 32.9345 12.308 39.992 20.138 41.945C20.054 41.702 20 41.42 20 41.0705V37.994C19.2695 37.994 18.0455 37.994 17.738 37.994C16.5065 37.994 15.4115 37.4645 14.8805 36.4805C14.291 35.387 14.189 33.7145 12.728 32.6915C12.2945 32.351 12.6245 31.9625 13.124 32.015C14.0465 32.276 14.8115 32.909 15.5315 33.848C16.2485 34.7885 16.586 35.0015 17.9255 35.0015C18.575 35.0015 19.547 34.964 20.462 34.82C20.954 33.5705 21.8045 32.42 22.844 31.877C16.85 31.2605 13.9895 28.2785 13.9895 24.23C13.9895 22.487 14.732 20.801 15.9935 19.3805C15.5795 17.9705 15.059 15.095 16.1525 14C18.8495 14 20.48 15.749 20.8715 16.2215C22.2155 15.761 23.6915 15.5 25.2425 15.5C26.7965 15.5 28.2785 15.761 29.6255 16.2245C30.0125 15.755 31.6445 14 34.3475 14C35.4455 15.0965 34.919 17.984 34.5005 19.391C35.7545 20.8085 36.4925 22.49 36.4925 24.23C36.4925 28.2755 33.6365 31.256 27.6515 31.8755C29.2985 32.735 30.5 35.15 30.5 36.9695V41.0705C30.5 41.2265 30.4655 41.339 30.4475 41.4725C37.4615 39.014 42.5 32.354 42.5 24.5C42.5 14.5595 34.4405 6.5 24.5 6.5Z" fill="white"/>
<rect x="212" y="69" width="50.2227" height="49.45" rx="8" fill="black" fill-opacity="0.4"/>
<path d="M221.566 72.1469C219.657 72.1469 218.111 73.8403 218.111 75.931V109.987C218.111 112.078 219.657 113.771 221.566 113.771H252.657C254.565 113.771 256.111 112.078 256.111 109.987V75.931C256.111 73.8403 254.565 72.1469 252.657 72.1469H221.566ZM241.43 85.3911H245.846C246.322 85.3911 246.709 85.8149 246.709 86.3371C246.709 86.8593 246.322 87.2831 245.846 87.2831H241.43C240.953 87.2831 240.566 86.8593 240.566 86.3371C240.566 85.8149 240.953 85.3911 241.43 85.3911ZM226.609 86.1191H231.42C234.26 86.1191 235.954 87.6408 235.954 90.1174C235.954 91.8164 234.807 93.2989 233.306 93.543V93.7426C235.244 93.8977 236.653 95.4975 236.653 97.5635C236.654 100.373 234.717 102.153 231.592 102.153H226.609C225.732 102.153 225.02 101.374 225.02 100.413V87.8596C225.02 86.8984 225.732 86.1191 226.609 86.1191ZM228.084 88.6836V92.7633H230.384C232.039 92.7652 232.942 92.0193 232.942 90.7308C232.942 89.4537 232.102 88.6836 230.641 88.6836H228.084ZM243.956 89.6296C247.254 89.6296 249.199 91.9312 249.199 95.8193V96.806H241.524V96.9723C241.564 98.7943 242.539 99.9286 244.081 99.9286C245.247 99.9286 246.047 99.4745 246.362 98.6648H249.111C248.666 100.977 246.736 102.419 243.997 102.419C240.589 102.419 238.582 100.062 238.582 96.0854C238.582 92.097 240.63 89.6296 243.956 89.6296ZM243.97 92.1092C242.6 92.1092 241.634 93.151 241.534 94.7403H246.301C246.239 93.1188 245.348 92.1092 243.97 92.1092ZM228.084 95.0322V99.5886H230.813C232.578 99.5886 233.532 98.7738 233.532 97.2753C233.532 95.8071 232.547 95.0322 230.742 95.0322H228.084Z" fill="white"/>
</g>
<defs>
<filter id="filter0_b_22_60" x="-23.0001" y="-23" width="308.223" height="166.423" filterUnits="userSpaceOnUse" color-interpolation-filters="sRGB">
<feFlood flood-opacity="0" result="BackgroundImageFix"/>
<feGaussianBlur in="BackgroundImageFix" stdDeviation="11.5"/>
<feComposite in2="SourceAlpha" operator="in" result="effect1_backgroundBlur_22_60"/>
<feBlend mode="normal" in="SourceGraphic" in2="effect1_backgroundBlur_22_60" result="shape"/>
</filter>
</defs>
</svg>
