<svg width="39" height="39" viewBox="0 0 39 39" fill="none" xmlns="http://www.w3.org/2000/svg">
<path d="M25.6602 13.2202C28.2122 13.2202 30.6598 14.234 32.4643 16.0386C34.2689 17.8432 35.2827 20.2907 35.2827 22.8428V34.0691H28.8677V22.8428C28.8677 21.9921 28.5297 21.1762 27.9282 20.5747C27.3267 19.9732 26.5108 19.6353 25.6602 19.6353C24.8095 19.6353 23.9936 19.9732 23.3921 20.5747C22.7906 21.1762 22.4526 21.9921 22.4526 22.8428V34.0691H16.0376V22.8428C16.0376 20.2907 17.0514 17.8432 18.856 16.0386C20.6606 14.234 23.1081 13.2202 25.6602 13.2202V13.2202Z" stroke="#01D1FF" stroke-opacity="0.97" stroke-width="3.20752" stroke-linecap="round" stroke-linejoin="round"/>
<path d="M9.62256 14.8237H3.20752V34.0688H9.62256V14.8237Z" stroke="#01D1FF" stroke-opacity="0.97" stroke-width="3.20752" stroke-linecap="round" stroke-linejoin="round"/>
<path d="M6.41504 10.0127C8.1865 10.0127 9.62256 8.57664 9.62256 6.80518C9.62256 5.03371 8.1865 3.59766 6.41504 3.59766C4.64357 3.59766 3.20752 5.03371 3.20752 6.80518C3.20752 8.57664 4.64357 10.0127 6.41504 10.0127Z" stroke="#01D1FF" stroke-opacity="0.97" stroke-width="3.20752" stroke-linecap="round" stroke-linejoin="round"/>
</svg>
