<svg width="309" height="200" viewBox="0 0 309 200" fill="none" xmlns="http://www.w3.org/2000/svg">
<g filter="url(#filter0_b_108_27)">
<rect width="300" height="200" rx="13" fill="#000F21" fill-opacity="0.88"/>
<rect x="0.5" y="0.5" width="299" height="199" rx="12.5" stroke="#EBEBEB" stroke-opacity="0.26"/>
</g>
<path d="M41 162C46.8333 155.667 60.9 143.4 70.5 145C82.5 147 106 153 113.5 145C121 137 136 110.5 163 109C190 107.5 213 92 223 82C233 72 241 44.5 299.5 44.5" stroke="#0FF542" stroke-width="3"/>
<path d="M46.902 181V179.892L49.4908 177.495C49.7109 177.282 49.8956 177.09 50.0447 176.92C50.1963 176.749 50.3111 176.582 50.3892 176.419C50.4673 176.253 50.5064 176.075 50.5064 175.883C50.5064 175.67 50.4579 175.486 50.3608 175.332C50.2637 175.176 50.1312 175.057 49.9631 174.974C49.795 174.888 49.6044 174.846 49.3913 174.846C49.1688 174.846 48.9747 174.891 48.8089 174.981C48.6432 175.071 48.5154 175.2 48.4254 175.368C48.3355 175.536 48.2905 175.736 48.2905 175.968H46.831C46.831 175.492 46.9387 175.079 47.1541 174.729C47.3696 174.378 47.6714 174.107 48.0597 173.915C48.4479 173.724 48.8954 173.628 49.402 173.628C49.9228 173.628 50.3762 173.72 50.7621 173.905C51.1503 174.087 51.4522 174.34 51.6676 174.665C51.883 174.989 51.9908 175.361 51.9908 175.78C51.9908 176.054 51.9363 176.326 51.8274 176.593C51.7209 176.861 51.5303 177.158 51.2557 177.484C50.9811 177.809 50.594 178.198 50.0945 178.653L49.0327 179.693V179.743H52.0866V181H46.902ZM56.0524 181.16C55.4416 181.157 54.916 181.007 54.4757 180.709C54.0377 180.411 53.7003 179.978 53.4636 179.413C53.2292 178.847 53.1132 178.166 53.1156 177.371C53.1156 176.578 53.2328 175.902 53.4672 175.343C53.7039 174.784 54.0413 174.359 54.4792 174.068C54.9196 173.775 55.444 173.628 56.0524 173.628C56.6608 173.628 57.184 173.775 57.622 174.068C58.0623 174.362 58.4009 174.788 58.6376 175.347C58.8743 175.903 58.9915 176.578 58.9892 177.371C58.9892 178.169 58.8708 178.85 58.6341 179.416C58.3997 179.982 58.0635 180.414 57.6255 180.712C57.1876 181.011 56.6632 181.16 56.0524 181.16ZM56.0524 179.885C56.469 179.885 56.8017 179.675 57.0502 179.256C57.2988 178.837 57.4219 178.209 57.4196 177.371C57.4196 176.819 57.3627 176.36 57.2491 175.993C57.1378 175.626 56.9792 175.35 56.7733 175.165C56.5697 174.981 56.3294 174.888 56.0524 174.888C55.6381 174.888 55.3066 175.096 55.0581 175.51C54.8095 175.924 54.684 176.545 54.6816 177.371C54.6816 177.929 54.7373 178.396 54.8485 178.77C54.9622 179.142 55.122 179.421 55.3279 179.608C55.5339 179.793 55.7754 179.885 56.0524 179.885ZM60.0856 181V179.892L62.6744 177.495C62.8945 177.282 63.0792 177.09 63.2283 176.92C63.3799 176.749 63.4947 176.582 63.5728 176.419C63.6509 176.253 63.69 176.075 63.69 175.883C63.69 175.67 63.6415 175.486 63.5444 175.332C63.4473 175.176 63.3147 175.057 63.1467 174.974C62.9786 174.888 62.788 174.846 62.5749 174.846C62.3524 174.846 62.1583 174.891 61.9925 174.981C61.8268 175.071 61.699 175.2 61.609 175.368C61.5191 175.536 61.4741 175.736 61.4741 175.968H60.0146C60.0146 175.492 60.1223 175.079 60.3377 174.729C60.5531 174.378 60.855 174.107 61.2433 173.915C61.6315 173.724 62.079 173.628 62.5856 173.628C63.1064 173.628 63.5598 173.72 63.9457 173.905C64.3339 174.087 64.6358 174.34 64.8512 174.665C65.0666 174.989 65.1744 175.361 65.1744 175.78C65.1744 176.054 65.1199 176.326 65.011 176.593C64.9045 176.861 64.7139 177.158 64.4393 177.484C64.1647 177.809 63.7776 178.198 63.2781 178.653L62.2163 179.693V179.743H65.2702V181H60.0856ZM69.5485 173.727V181H68.0108V175.187H67.9682L66.3027 176.231V174.867L68.1032 173.727H69.5485Z" fill="white"/>
<path d="M110.699 181V179.892L113.288 177.495C113.508 177.282 113.692 177.09 113.842 176.92C113.993 176.749 114.108 176.582 114.186 176.419C114.264 176.253 114.303 176.075 114.303 175.883C114.303 175.67 114.255 175.486 114.158 175.332C114.061 175.176 113.928 175.057 113.76 174.974C113.592 174.888 113.401 174.846 113.188 174.846C112.966 174.846 112.772 174.891 112.606 174.981C112.44 175.071 112.312 175.2 112.222 175.368C112.132 175.536 112.087 175.736 112.087 175.968H110.628C110.628 175.492 110.736 175.079 110.951 174.729C111.166 174.378 111.468 174.107 111.857 173.915C112.245 173.724 112.692 173.628 113.199 173.628C113.72 173.628 114.173 173.72 114.559 173.905C114.947 174.087 115.249 174.34 115.464 174.665C115.68 174.989 115.788 175.361 115.788 175.78C115.788 176.054 115.733 176.326 115.624 176.593C115.518 176.861 115.327 177.158 115.053 177.484C114.778 177.809 114.391 178.198 113.891 178.653L112.83 179.693V179.743H115.884V181H110.699ZM119.849 181.16C119.238 181.157 118.713 181.007 118.273 180.709C117.835 180.411 117.497 179.978 117.26 179.413C117.026 178.847 116.91 178.166 116.912 177.371C116.912 176.578 117.03 175.902 117.264 175.343C117.501 174.784 117.838 174.359 118.276 174.068C118.716 173.775 119.241 173.628 119.849 173.628C120.458 173.628 120.981 173.775 121.419 174.068C121.859 174.362 122.198 174.788 122.434 175.347C122.671 175.903 122.788 176.578 122.786 177.371C122.786 178.169 122.668 178.85 122.431 179.416C122.197 179.982 121.86 180.414 121.422 180.712C120.984 181.011 120.46 181.16 119.849 181.16ZM119.849 179.885C120.266 179.885 120.599 179.675 120.847 179.256C121.096 178.837 121.219 178.209 121.216 177.371C121.216 176.819 121.16 176.36 121.046 175.993C120.935 175.626 120.776 175.35 120.57 175.165C120.367 174.981 120.126 174.888 119.849 174.888C119.435 174.888 119.104 175.096 118.855 175.51C118.606 175.924 118.481 176.545 118.479 177.371C118.479 177.929 118.534 178.396 118.645 178.77C118.759 179.142 118.919 179.421 119.125 179.608C119.331 179.793 119.572 179.885 119.849 179.885ZM123.882 181V179.892L126.471 177.495C126.691 177.282 126.876 177.09 127.025 176.92C127.177 176.749 127.292 176.582 127.37 176.419C127.448 176.253 127.487 176.075 127.487 175.883C127.487 175.67 127.438 175.486 127.341 175.332C127.244 175.176 127.112 175.057 126.944 174.974C126.775 174.888 126.585 174.846 126.372 174.846C126.149 174.846 125.955 174.891 125.789 174.981C125.624 175.071 125.496 175.2 125.406 175.368C125.316 175.536 125.271 175.736 125.271 175.968H123.811C123.811 175.492 123.919 175.079 124.135 174.729C124.35 174.378 124.652 174.107 125.04 173.915C125.428 173.724 125.876 173.628 126.382 173.628C126.903 173.628 127.357 173.72 127.743 173.905C128.131 174.087 128.433 174.34 128.648 174.665C128.864 174.989 128.971 175.361 128.971 175.78C128.971 176.054 128.917 176.326 128.808 176.593C128.701 176.861 128.511 177.158 128.236 177.484C127.962 177.809 127.574 178.198 127.075 178.653L126.013 179.693V179.743H129.067V181H123.882ZM130.181 181V179.892L132.77 177.495C132.99 177.282 133.175 177.09 133.324 176.92C133.476 176.749 133.59 176.582 133.669 176.419C133.747 176.253 133.786 176.075 133.786 175.883C133.786 175.67 133.737 175.486 133.64 175.332C133.543 175.176 133.41 175.057 133.242 174.974C133.074 174.888 132.884 174.846 132.671 174.846C132.448 174.846 132.254 174.891 132.088 174.981C131.923 175.071 131.795 175.2 131.705 175.368C131.615 175.536 131.57 175.736 131.57 175.968H130.11C130.11 175.492 130.218 175.079 130.433 174.729C130.649 174.378 130.951 174.107 131.339 173.915C131.727 173.724 132.175 173.628 132.681 173.628C133.202 173.628 133.655 173.72 134.041 173.905C134.43 174.087 134.731 174.34 134.947 174.665C135.162 174.989 135.27 175.361 135.27 175.78C135.27 176.054 135.216 176.326 135.107 176.593C135 176.861 134.81 177.158 134.535 177.484C134.26 177.809 133.873 178.198 133.374 178.653L132.312 179.693V179.743H135.366V181H130.181Z" fill="white"/>
<path d="M176.052 181V179.892L178.641 177.495C178.861 177.282 179.046 177.09 179.195 176.92C179.347 176.749 179.461 176.582 179.54 176.419C179.618 176.253 179.657 176.075 179.657 175.883C179.657 175.67 179.608 175.486 179.511 175.332C179.414 175.176 179.282 175.057 179.113 174.974C178.945 174.888 178.755 174.846 178.542 174.846C178.319 174.846 178.125 174.891 177.959 174.981C177.794 175.071 177.666 175.2 177.576 175.368C177.486 175.536 177.441 175.736 177.441 175.968H175.981C175.981 175.492 176.089 175.079 176.305 174.729C176.52 174.378 176.822 174.107 177.21 173.915C177.598 173.724 178.046 173.628 178.552 173.628C179.073 173.628 179.527 173.72 179.912 173.905C180.301 174.087 180.603 174.34 180.818 174.665C181.033 174.989 181.141 175.361 181.141 175.78C181.141 176.054 181.087 176.326 180.978 176.593C180.871 176.861 180.681 177.158 180.406 177.484C180.131 177.809 179.744 178.198 179.245 178.653L178.183 179.693V179.743H181.237V181H176.052ZM185.203 181.16C184.592 181.157 184.066 181.007 183.626 180.709C183.188 180.411 182.851 179.978 182.614 179.413C182.38 178.847 182.264 178.166 182.266 177.371C182.266 176.578 182.383 175.902 182.618 175.343C182.854 174.784 183.192 174.359 183.63 174.068C184.07 173.775 184.594 173.628 185.203 173.628C185.811 173.628 186.334 173.775 186.772 174.068C187.213 174.362 187.551 174.788 187.788 175.347C188.025 175.903 188.142 176.578 188.14 177.371C188.14 178.169 188.021 178.85 187.784 179.416C187.55 179.982 187.214 180.414 186.776 180.712C186.338 181.011 185.814 181.16 185.203 181.16ZM185.203 179.885C185.619 179.885 185.952 179.675 186.201 179.256C186.449 178.837 186.572 178.209 186.57 177.371C186.57 176.819 186.513 176.36 186.4 175.993C186.288 175.626 186.13 175.35 185.924 175.165C185.72 174.981 185.48 174.888 185.203 174.888C184.788 174.888 184.457 175.096 184.208 175.51C183.96 175.924 183.834 176.545 183.832 177.371C183.832 177.929 183.888 178.396 183.999 178.77C184.113 179.142 184.272 179.421 184.478 179.608C184.684 179.793 184.926 179.885 185.203 179.885ZM189.236 181V179.892L191.825 177.495C192.045 177.282 192.23 177.09 192.379 176.92C192.53 176.749 192.645 176.582 192.723 176.419C192.801 176.253 192.84 176.075 192.84 175.883C192.84 175.67 192.792 175.486 192.695 175.332C192.598 175.176 192.465 175.057 192.297 174.974C192.129 174.888 191.938 174.846 191.725 174.846C191.503 174.846 191.309 174.891 191.143 174.981C190.977 175.071 190.849 175.2 190.759 175.368C190.669 175.536 190.624 175.736 190.624 175.968H189.165C189.165 175.492 189.273 175.079 189.488 174.729C189.704 174.378 190.005 174.107 190.394 173.915C190.782 173.724 191.229 173.628 191.736 173.628C192.257 173.628 192.71 173.72 193.096 173.905C193.484 174.087 193.786 174.34 194.002 174.665C194.217 174.989 194.325 175.361 194.325 175.78C194.325 176.054 194.27 176.326 194.161 176.593C194.055 176.861 193.864 177.158 193.59 177.484C193.315 177.809 192.928 178.198 192.428 178.653L191.367 179.693V179.743H194.421V181H189.236ZM198.223 181.099C197.693 181.099 197.22 181.008 196.806 180.826C196.394 180.641 196.069 180.388 195.83 180.066C195.593 179.742 195.471 179.368 195.464 178.944H197.012C197.022 179.121 197.08 179.278 197.186 179.413C197.295 179.545 197.439 179.648 197.619 179.722C197.799 179.795 198.002 179.832 198.227 179.832C198.461 179.832 198.668 179.79 198.848 179.707C199.028 179.625 199.169 179.51 199.271 179.363C199.372 179.216 199.423 179.047 199.423 178.855C199.423 178.661 199.369 178.489 199.26 178.34C199.153 178.189 199 178.07 198.798 177.985C198.599 177.9 198.363 177.857 198.088 177.857H197.41V176.728H198.088C198.32 176.728 198.525 176.688 198.702 176.607C198.882 176.527 199.022 176.415 199.121 176.273C199.221 176.129 199.271 175.961 199.271 175.769C199.271 175.587 199.227 175.427 199.139 175.29C199.054 175.15 198.933 175.041 198.777 174.963C198.623 174.885 198.443 174.846 198.237 174.846C198.029 174.846 197.838 174.884 197.665 174.96C197.493 175.033 197.354 175.138 197.25 175.276C197.146 175.413 197.09 175.574 197.083 175.759H195.609C195.616 175.339 195.736 174.97 195.968 174.651C196.2 174.331 196.513 174.081 196.906 173.901C197.301 173.719 197.747 173.628 198.244 173.628C198.746 173.628 199.185 173.719 199.562 173.901C199.938 174.084 200.231 174.33 200.439 174.64C200.65 174.948 200.754 175.293 200.751 175.677C200.754 176.084 200.627 176.424 200.371 176.696C200.118 176.968 199.788 177.141 199.381 177.214V177.271C199.916 177.34 200.323 177.526 200.602 177.829C200.884 178.129 201.024 178.506 201.021 178.958C201.024 179.372 200.904 179.741 200.663 180.062C200.424 180.384 200.093 180.638 199.672 180.822C199.25 181.007 198.768 181.099 198.223 181.099Z" fill="white"/>
<path d="M241.052 181V179.892L243.641 177.495C243.861 177.282 244.046 177.09 244.195 176.92C244.347 176.749 244.461 176.582 244.54 176.419C244.618 176.253 244.657 176.075 244.657 175.883C244.657 175.67 244.608 175.486 244.511 175.332C244.414 175.176 244.282 175.057 244.113 174.974C243.945 174.888 243.755 174.846 243.542 174.846C243.319 174.846 243.125 174.891 242.959 174.981C242.794 175.071 242.666 175.2 242.576 175.368C242.486 175.536 242.441 175.736 242.441 175.968H240.981C240.981 175.492 241.089 175.079 241.305 174.729C241.52 174.378 241.822 174.107 242.21 173.915C242.598 173.724 243.046 173.628 243.552 173.628C244.073 173.628 244.527 173.72 244.912 173.905C245.301 174.087 245.603 174.34 245.818 174.665C246.033 174.989 246.141 175.361 246.141 175.78C246.141 176.054 246.087 176.326 245.978 176.593C245.871 176.861 245.681 177.158 245.406 177.484C245.131 177.809 244.744 178.198 244.245 178.653L243.183 179.693V179.743H246.237V181H241.052ZM250.203 181.16C249.592 181.157 249.066 181.007 248.626 180.709C248.188 180.411 247.851 179.978 247.614 179.413C247.38 178.847 247.264 178.166 247.266 177.371C247.266 176.578 247.383 175.902 247.618 175.343C247.854 174.784 248.192 174.359 248.63 174.068C249.07 173.775 249.594 173.628 250.203 173.628C250.811 173.628 251.334 173.775 251.772 174.068C252.213 174.362 252.551 174.788 252.788 175.347C253.025 175.903 253.142 176.578 253.14 177.371C253.14 178.169 253.021 178.85 252.784 179.416C252.55 179.982 252.214 180.414 251.776 180.712C251.338 181.011 250.814 181.16 250.203 181.16ZM250.203 179.885C250.619 179.885 250.952 179.675 251.201 179.256C251.449 178.837 251.572 178.209 251.57 177.371C251.57 176.819 251.513 176.36 251.4 175.993C251.288 175.626 251.13 175.35 250.924 175.165C250.72 174.981 250.48 174.888 250.203 174.888C249.788 174.888 249.457 175.096 249.208 175.51C248.96 175.924 248.834 176.545 248.832 177.371C248.832 177.929 248.888 178.396 248.999 178.77C249.113 179.142 249.272 179.421 249.478 179.608C249.684 179.793 249.926 179.885 250.203 179.885ZM254.236 181V179.892L256.825 177.495C257.045 177.282 257.23 177.09 257.379 176.92C257.53 176.749 257.645 176.582 257.723 176.419C257.801 176.253 257.84 176.075 257.84 175.883C257.84 175.67 257.792 175.486 257.695 175.332C257.598 175.176 257.465 175.057 257.297 174.974C257.129 174.888 256.938 174.846 256.725 174.846C256.503 174.846 256.309 174.891 256.143 174.981C255.977 175.071 255.849 175.2 255.759 175.368C255.669 175.536 255.624 175.736 255.624 175.968H254.165C254.165 175.492 254.273 175.079 254.488 174.729C254.704 174.378 255.005 174.107 255.394 173.915C255.782 173.724 256.229 173.628 256.736 173.628C257.257 173.628 257.71 173.72 258.096 173.905C258.484 174.087 258.786 174.34 259.002 174.665C259.217 174.989 259.325 175.361 259.325 175.78C259.325 176.054 259.27 176.326 259.161 176.593C259.055 176.861 258.864 177.158 258.59 177.484C258.315 177.809 257.928 178.198 257.428 178.653L256.367 179.693V179.743H259.421V181H254.236ZM263.223 181.099C262.693 181.099 262.22 181.008 261.806 180.826C261.394 180.641 261.069 180.388 260.83 180.066C260.593 179.742 260.471 179.368 260.464 178.944H262.012C262.022 179.121 262.08 179.278 262.186 179.413C262.295 179.545 262.439 179.648 262.619 179.722C262.799 179.795 263.002 179.832 263.227 179.832C263.461 179.832 263.668 179.79 263.848 179.707C264.028 179.625 264.169 179.51 264.271 179.363C264.372 179.216 264.423 179.047 264.423 178.855C264.423 178.661 264.369 178.489 264.26 178.34C264.153 178.189 264 178.07 263.798 177.985C263.599 177.9 263.363 177.857 263.088 177.857H262.41V176.728H263.088C263.32 176.728 263.525 176.688 263.702 176.607C263.882 176.527 264.022 176.415 264.121 176.273C264.221 176.129 264.271 175.961 264.271 175.769C264.271 175.587 264.227 175.427 264.139 175.29C264.054 175.15 263.933 175.041 263.777 174.963C263.623 174.885 263.443 174.846 263.237 174.846C263.029 174.846 262.838 174.884 262.665 174.96C262.493 175.033 262.354 175.138 262.25 175.276C262.146 175.413 262.09 175.574 262.083 175.759H260.609C260.616 175.339 260.736 174.97 260.968 174.651C261.2 174.331 261.513 174.081 261.906 173.901C262.301 173.719 262.747 173.628 263.244 173.628C263.746 173.628 264.185 173.719 264.562 173.901C264.938 174.084 265.231 174.33 265.439 174.64C265.65 174.948 265.754 175.293 265.751 175.677C265.754 176.084 265.627 176.424 265.371 176.696C265.118 176.968 264.788 177.141 264.381 177.214V177.271C264.916 177.34 265.323 177.526 265.602 177.829C265.884 178.129 266.024 178.506 266.021 178.958C266.024 179.372 265.904 179.741 265.663 180.062C265.424 180.384 265.093 180.638 264.672 180.822C264.25 181.007 263.768 181.099 263.223 181.099Z" fill="white"/>
<path d="M0 13C0 5.8203 5.8203 0 13 0H287C294.18 0 300 5.8203 300 13V38H0V13Z" fill="#005BC7" fill-opacity="0.39"/>
<path d="M19.9506 18.2646C19.9137 17.8922 19.7552 17.6029 19.4751 17.3967C19.1951 17.1905 18.815 17.0874 18.3349 17.0874C18.0086 17.0874 17.7332 17.1335 17.5085 17.2259C17.2839 17.3151 17.1115 17.4397 16.9915 17.5998C16.8745 17.7598 16.8161 17.9414 16.8161 18.1445C16.8099 18.3138 16.8453 18.4615 16.9222 18.5877C17.0022 18.7139 17.1115 18.8232 17.25 18.9155C17.3885 19.0047 17.5485 19.0832 17.7301 19.1509C17.9117 19.2156 18.1056 19.271 18.3118 19.3171L19.1612 19.5202C19.5736 19.6126 19.9522 19.7357 20.2969 19.8896C20.6416 20.0434 20.9401 20.2327 21.1925 20.4574C21.4448 20.6821 21.6403 20.9467 21.7788 21.2514C21.9203 21.5561 21.9927 21.9054 21.9957 22.2994C21.9927 22.878 21.8449 23.3796 21.5526 23.8043C21.2633 24.226 20.8447 24.5537 20.2969 24.7876C19.7521 25.0185 19.0951 25.1339 18.3256 25.1339C17.5624 25.1339 16.8976 25.0169 16.3313 24.783C15.7681 24.5491 15.328 24.2029 15.011 23.7443C14.6971 23.2827 14.5324 22.7118 14.517 22.0316H16.4513C16.4729 22.3486 16.5637 22.6133 16.7237 22.8256C16.8868 23.0349 17.1038 23.1934 17.3746 23.3011C17.6486 23.4058 17.9579 23.4581 18.3026 23.4581C18.6411 23.4581 18.935 23.4089 19.1843 23.3104C19.4367 23.2119 19.6321 23.0749 19.7706 22.8995C19.9091 22.7241 19.9783 22.5225 19.9783 22.2947C19.9783 22.0824 19.9152 21.9039 19.7891 21.7592C19.666 21.6146 19.4844 21.4915 19.2443 21.3899C19.0073 21.2884 18.7165 21.196 18.3718 21.1129L17.3423 20.8544C16.5452 20.6605 15.9158 20.3574 15.4542 19.945C14.9925 19.5326 14.7633 18.977 14.7663 18.2784C14.7633 17.706 14.9156 17.2058 15.2234 16.7781C15.5342 16.3503 15.9605 16.0163 16.5021 15.7763C17.0438 15.5362 17.6593 15.4162 18.3487 15.4162C19.0504 15.4162 19.6629 15.5362 20.1861 15.7763C20.7124 16.0163 21.1217 16.3503 21.4141 16.7781C21.7064 17.2058 21.8572 17.7013 21.8665 18.2646H19.9506ZM24.7541 25H22.612L25.8759 15.5455H28.4519L31.7111 25H29.5691L27.2008 17.706H27.127L24.7541 25ZM24.6202 21.2837H29.6799V22.8441H24.6202V21.2837ZM32.8491 25V15.5455H34.848V23.3519H38.9013V25H32.8491ZM40.2251 25V15.5455H46.5958V17.1935H42.224V19.4464H46.268V21.0945H42.224V23.3519H46.6143V25H40.2251ZM53.3139 18.2646C53.277 17.8922 53.1185 17.6029 52.8384 17.3967C52.5584 17.1905 52.1783 17.0874 51.6982 17.0874C51.3719 17.0874 51.0965 17.1335 50.8718 17.2259C50.6471 17.3151 50.4748 17.4397 50.3548 17.5998C50.2378 17.7598 50.1793 17.9414 50.1793 18.1445C50.1732 18.3138 50.2086 18.4615 50.2855 18.5877C50.3655 18.7139 50.4748 18.8232 50.6133 18.9155C50.7518 19.0047 50.9118 19.0832 51.0934 19.1509C51.275 19.2156 51.4689 19.271 51.6751 19.3171L52.5245 19.5202C52.9369 19.6126 53.3155 19.7357 53.6602 19.8896C54.0049 20.0434 54.3034 20.2327 54.5558 20.4574C54.8081 20.6821 55.0036 20.9467 55.142 21.2514C55.2836 21.5561 55.3559 21.9054 55.359 22.2994C55.3559 22.878 55.2082 23.3796 54.9158 23.8043C54.6265 24.226 54.208 24.5537 53.6602 24.7876C53.1154 25.0185 52.4583 25.1339 51.6889 25.1339C50.9257 25.1339 50.2609 25.0169 49.6946 24.783C49.1314 24.5491 48.6913 24.2029 48.3743 23.7443C48.0604 23.2827 47.8957 22.7118 47.8803 22.0316H49.8146C49.8362 22.3486 49.927 22.6133 50.087 22.8256C50.2501 23.0349 50.4671 23.1934 50.7379 23.3011C51.0118 23.4058 51.3211 23.4581 51.6658 23.4581C52.0044 23.4581 52.2983 23.4089 52.5476 23.3104C52.8 23.2119 52.9954 23.0749 53.1339 22.8995C53.2724 22.7241 53.3416 22.5225 53.3416 22.2947C53.3416 22.0824 53.2785 21.9039 53.1523 21.7592C53.0292 21.6146 52.8477 21.4915 52.6076 21.3899C52.3706 21.2884 52.0798 21.196 51.7351 21.1129L50.7056 20.8544C49.9085 20.6605 49.2791 20.3574 48.8175 19.945C48.3558 19.5326 48.1265 18.977 48.1296 18.2784C48.1265 17.706 48.2789 17.2058 48.5866 16.7781C48.8975 16.3503 49.3237 16.0163 49.8654 15.7763C50.4071 15.5362 51.0226 15.4162 51.712 15.4162C52.4137 15.4162 53.0262 15.5362 53.5494 15.7763C54.0756 16.0163 54.485 16.3503 54.7773 16.7781C55.0697 17.2058 55.2205 17.7013 55.2298 18.2646H53.3139ZM59.7124 25V15.5455H63.4425C64.1596 15.5455 64.7705 15.6824 65.2752 15.9563C65.7799 16.2272 66.1647 16.6042 66.4293 17.0874C66.6971 17.5675 66.831 18.1214 66.831 18.7493C66.831 19.3771 66.6955 19.9311 66.4247 20.4112C66.1539 20.8913 65.7615 21.2653 65.2475 21.533C64.7366 21.8008 64.118 21.9347 63.3917 21.9347H61.0142V20.3327H63.0685C63.4532 20.3327 63.7702 20.2666 64.0195 20.1342C64.2719 19.9988 64.4596 19.8126 64.5827 19.5756C64.7089 19.3356 64.772 19.0601 64.772 18.7493C64.772 18.4354 64.7089 18.1615 64.5827 17.9276C64.4596 17.6906 64.2719 17.5075 64.0195 17.3782C63.7672 17.2459 63.4471 17.1797 63.0593 17.1797H61.7113V25H59.7124ZM68.1294 25V15.5455H71.8595C72.5735 15.5455 73.1829 15.6732 73.6876 15.9286C74.1954 16.181 74.5816 16.5395 74.8463 17.0043C75.1141 17.4659 75.248 18.0091 75.248 18.6339C75.248 19.2617 75.1125 19.8018 74.8417 20.2543C74.5709 20.7036 74.1785 21.0483 73.6645 21.2884C73.1536 21.5284 72.535 21.6484 71.8087 21.6484H69.3112V20.0419H71.4855C71.8672 20.0419 72.1842 19.9896 72.4365 19.8849C72.6889 19.7803 72.8766 19.6233 72.9997 19.4141C73.1259 19.2048 73.189 18.9447 73.189 18.6339C73.189 18.32 73.1259 18.0553 72.9997 17.8398C72.8766 17.6244 72.6874 17.4613 72.4319 17.3505C72.1795 17.2366 71.861 17.1797 71.4763 17.1797H70.1283V25H68.1294ZM73.2352 20.6974L75.585 25H73.3783L71.0793 20.6974H73.2352ZM76.6606 25V15.5455H83.0313V17.1935H78.6595V19.4464H82.7036V21.0945H78.6595V23.3519H83.0498V25H76.6606ZM87.9721 25H84.6206V15.5455H87.9998C88.9508 15.5455 89.7695 15.7347 90.4558 16.1133C91.1421 16.4888 91.6699 17.0289 92.0392 17.7337C92.4116 18.4384 92.5978 19.2817 92.5978 20.2635C92.5978 21.2483 92.4116 22.0947 92.0392 22.8026C91.6699 23.5104 91.139 24.0536 90.4466 24.4322C89.7572 24.8107 88.9324 25 87.9721 25ZM86.6195 23.2873H87.889C88.4799 23.2873 88.977 23.1826 89.3801 22.9734C89.7864 22.761 90.0911 22.4332 90.2942 21.9901C90.5004 21.5438 90.6035 20.9683 90.6035 20.2635C90.6035 19.5649 90.5004 18.994 90.2942 18.5508C90.0911 18.1076 89.7879 17.7814 89.3848 17.5721C88.9816 17.3628 88.4846 17.2582 87.8936 17.2582H86.6195V23.2873ZM96.0775 15.5455V25H94.0786V15.5455H96.0775ZM106.064 18.8555H104.042C104.005 18.5939 103.93 18.3615 103.816 18.1584C103.702 17.9522 103.556 17.7768 103.377 17.6321C103.199 17.4875 102.993 17.3767 102.759 17.2997C102.528 17.2228 102.277 17.1843 102.006 17.1843C101.517 17.1843 101.091 17.3059 100.727 17.549C100.364 17.7891 100.083 18.1399 99.8826 18.6016C99.6826 19.0601 99.5826 19.6172 99.5826 20.2727C99.5826 20.9467 99.6826 21.513 99.8826 21.9716C100.086 22.4302 100.369 22.7764 100.732 23.0103C101.095 23.2442 101.515 23.3612 101.992 23.3612C102.26 23.3612 102.508 23.3258 102.736 23.255C102.966 23.1842 103.171 23.0811 103.35 22.9457C103.528 22.8072 103.676 22.6394 103.793 22.4425C103.913 22.2455 103.996 22.0208 104.042 21.7685L106.064 21.7777C106.012 22.2116 105.881 22.6302 105.672 23.0334C105.465 23.4335 105.187 23.792 104.836 24.109C104.488 24.4229 104.073 24.6722 103.59 24.8569C103.11 25.0385 102.566 25.1293 101.96 25.1293C101.117 25.1293 100.363 24.9384 99.698 24.5568C99.0363 24.1752 98.5131 23.6228 98.1284 22.8995C97.7467 22.1763 97.5559 21.3007 97.5559 20.2727C97.5559 19.2417 97.7498 18.3646 98.1376 17.6413C98.5254 16.9181 99.0517 16.3672 99.7164 15.9886C100.381 15.607 101.129 15.4162 101.96 15.4162C102.508 15.4162 103.016 15.4931 103.483 15.647C103.954 15.8009 104.371 16.0256 104.735 16.321C105.098 16.6134 105.393 16.9719 105.621 17.3967C105.852 17.8214 105.999 18.3076 106.064 18.8555ZM107.137 17.1935V15.5455H114.902V17.1935H112.008V25H110.032V17.1935H107.137ZM118.18 15.5455V25H116.181V15.5455H118.18ZM128.513 20.2727C128.513 21.3037 128.317 22.1809 127.927 22.9041C127.539 23.6274 127.009 24.1798 126.339 24.5614C125.671 24.94 124.92 25.1293 124.086 25.1293C123.245 25.1293 122.491 24.9384 121.824 24.5568C121.156 24.1752 120.628 23.6228 120.24 22.8995C119.852 22.1763 119.658 21.3007 119.658 20.2727C119.658 19.2417 119.852 18.3646 120.24 17.6413C120.628 16.9181 121.156 16.3672 121.824 15.9886C122.491 15.607 123.245 15.4162 124.086 15.4162C124.92 15.4162 125.671 15.607 126.339 15.9886C127.009 16.3672 127.539 16.9181 127.927 17.6413C128.317 18.3646 128.513 19.2417 128.513 20.2727ZM126.486 20.2727C126.486 19.6049 126.386 19.0417 126.186 18.5831C125.989 18.1245 125.711 17.7768 125.351 17.5398C124.991 17.3028 124.569 17.1843 124.086 17.1843C123.602 17.1843 123.181 17.3028 122.821 17.5398C122.461 17.7768 122.181 18.1245 121.981 18.5831C121.784 19.0417 121.685 19.6049 121.685 20.2727C121.685 20.9406 121.784 21.5038 121.981 21.9624C122.181 22.4209 122.461 22.7687 122.821 23.0057C123.181 23.2427 123.602 23.3612 124.086 23.3612C124.569 23.3612 124.991 23.2427 125.351 23.0057C125.711 22.7687 125.989 22.4209 126.186 21.9624C126.386 21.5038 126.486 20.9406 126.486 20.2727ZM137.902 15.5455V25H136.175L132.062 19.0494H131.993V25H129.994V15.5455H131.748L135.829 21.4915H135.912V15.5455H137.902Z" fill="white"/>
<path d="M19.5162 153.07C19.1648 153.07 18.8516 153.005 18.5765 152.876C18.3031 152.746 18.086 152.568 17.9252 152.341C17.7645 152.114 17.6808 151.854 17.6742 151.561H18.7182C18.7298 151.758 18.8127 151.918 18.9668 152.04C19.1209 152.163 19.304 152.224 19.5162 152.224C19.6852 152.224 19.8343 152.187 19.9636 152.113C20.0945 152.036 20.1964 151.931 20.2694 151.797C20.3439 151.661 20.3812 151.505 20.3812 151.33C20.3812 151.151 20.3431 150.993 20.2669 150.857C20.1923 150.721 20.0887 150.615 19.9561 150.539C19.8236 150.463 19.6719 150.424 19.5012 150.422C19.3521 150.422 19.2071 150.453 19.0662 150.514C18.927 150.576 18.8185 150.659 18.7406 150.765L17.7836 150.594L18.0247 147.909H21.1369V148.789H18.9121L18.7804 150.064H18.8102C18.8997 149.938 19.0347 149.834 19.2154 149.751C19.396 149.668 19.5982 149.627 19.8219 149.627C20.1285 149.627 20.4019 149.699 20.6422 149.843C20.8825 149.987 21.0723 150.185 21.2115 150.437C21.3507 150.687 21.4194 150.976 21.4178 151.302C21.4194 151.645 21.3399 151.95 21.1792 152.217C21.0201 152.482 20.7972 152.691 20.5105 152.843C20.2254 152.994 19.894 153.07 19.5162 153.07Z" fill="white"/>
<path d="M18.0054 118.909V124H16.9291V119.931H16.8992L15.7334 120.662V119.707L16.9937 118.909H18.0054ZM21.2115 124.112C20.7839 124.11 20.416 124.005 20.1078 123.796C19.8012 123.587 19.565 123.285 19.3993 122.889C19.2353 122.493 19.1541 122.016 19.1557 121.46C19.1557 120.904 19.2377 120.431 19.4018 120.04C19.5675 119.649 19.8037 119.352 20.1103 119.148C20.4185 118.942 20.7856 118.839 21.2115 118.839C21.6374 118.839 22.0036 118.942 22.3102 119.148C22.6184 119.353 22.8554 119.652 23.0211 120.043C23.1868 120.432 23.2689 120.904 23.2672 121.46C23.2672 122.018 23.1844 122.495 23.0186 122.891C22.8546 123.287 22.6193 123.59 22.3127 123.799C22.0061 124.007 21.639 124.112 21.2115 124.112ZM21.2115 123.219C21.5031 123.219 21.736 123.073 21.91 122.779C22.084 122.486 22.1702 122.046 22.1685 121.46C22.1685 121.073 22.1287 120.752 22.0492 120.495C21.9713 120.238 21.8603 120.045 21.7161 119.916C21.5736 119.787 21.4054 119.722 21.2115 119.722C20.9215 119.722 20.6895 119.867 20.5154 120.157C20.3414 120.447 20.2536 120.881 20.252 121.46C20.252 121.851 20.2909 122.177 20.3688 122.439C20.4483 122.699 20.5602 122.895 20.7044 123.026C20.8485 123.155 21.0176 123.219 21.2115 123.219Z" fill="white"/>
<path d="M18.6592 89.9091V95H17.5829V90.9308H17.553L16.3872 91.6616V90.707L17.6475 89.9091H18.6592ZM21.7286 95.0696C21.3772 95.0696 21.064 95.005 20.7889 94.8757C20.5155 94.7464 20.2984 94.5683 20.1377 94.3413C19.9769 94.1142 19.8932 93.854 19.8866 93.5607H20.9306C20.9422 93.7579 21.0251 93.9179 21.1792 94.0405C21.3333 94.1631 21.5164 94.2244 21.7286 94.2244C21.8976 94.2244 22.0467 94.1871 22.176 94.1126C22.3069 94.0363 22.4088 93.9311 22.4818 93.7969C22.5563 93.661 22.5936 93.5052 22.5936 93.3295C22.5936 93.1506 22.5555 92.9931 22.4793 92.8572C22.4047 92.7214 22.3011 92.6153 22.1685 92.5391C22.036 92.4628 21.8843 92.4239 21.7136 92.4222C21.5645 92.4222 21.4195 92.4529 21.2786 92.5142C21.1394 92.5755 21.0309 92.6592 20.953 92.7653L19.996 92.5938L20.2371 89.9091H23.3493V90.7891H21.1245L20.9928 92.0643H21.0226C21.1121 91.9383 21.2471 91.8339 21.4278 91.7511C21.6084 91.6682 21.8106 91.6268 22.0343 91.6268C22.3409 91.6268 22.6143 91.6989 22.8546 91.843C23.0949 91.9872 23.2847 92.1853 23.4239 92.4371C23.5631 92.6874 23.6319 92.9757 23.6302 93.3022C23.6319 93.6452 23.5523 93.9502 23.3916 94.217C23.2325 94.4821 23.0096 94.6909 22.7229 94.8434C22.4378 94.9942 22.1064 95.0696 21.7286 95.0696Z" fill="white"/>
<path d="M15.7984 66V65.2244L17.6105 63.5465C17.7646 63.3974 17.8939 63.2631 17.9983 63.1438C18.1044 63.0245 18.1847 62.9077 18.2394 62.7933C18.2941 62.6773 18.3215 62.5522 18.3215 62.418C18.3215 62.2688 18.2875 62.1404 18.2195 62.0327C18.1516 61.9233 18.0588 61.8396 17.9411 61.7816C17.8235 61.7219 17.6901 61.6921 17.5409 61.6921C17.3852 61.6921 17.2493 61.7236 17.1333 61.7866C17.0173 61.8496 16.9278 61.9399 16.8648 62.0575C16.8018 62.1752 16.7703 62.3152 16.7703 62.4776H15.7487C15.7487 62.1445 15.8241 61.8554 15.9749 61.6101C16.1257 61.3648 16.337 61.1751 16.6088 61.0408C16.8805 60.9066 17.1937 60.8395 17.5484 60.8395C17.913 60.8395 18.2303 60.9041 18.5004 61.0334C18.7722 61.161 18.9835 61.3383 19.1343 61.5653C19.2851 61.7924 19.3605 62.0526 19.3605 62.3459C19.3605 62.5381 19.3224 62.7279 19.2462 62.9151C19.1716 63.1024 19.0382 63.3104 18.846 63.5391C18.6537 63.7661 18.3828 64.0387 18.0331 64.3569L17.2899 65.0852V65.12H19.4276V66H15.7984ZM22.2037 66.1119C21.7761 66.1102 21.4082 66.005 21.1 65.7962C20.7934 65.5874 20.5572 65.2849 20.3915 64.8888C20.2275 64.4928 20.1462 64.0163 20.1479 63.4595C20.1479 62.9044 20.2299 62.4312 20.394 62.0401C20.5597 61.649 20.7959 61.3516 21.1025 61.1477C21.4107 60.9422 21.7778 60.8395 22.2037 60.8395C22.6296 60.8395 22.9958 60.9422 23.3024 61.1477C23.6106 61.3532 23.8476 61.6515 24.0133 62.0426C24.179 62.4321 24.2611 62.9044 24.2594 63.4595C24.2594 64.018 24.1766 64.4953 24.0108 64.8913C23.8468 65.2874 23.6114 65.5898 23.3049 65.7987C22.9983 66.0075 22.6312 66.1119 22.2037 66.1119ZM22.2037 65.2195C22.4953 65.2195 22.7282 65.0728 22.9022 64.7795C23.0762 64.4862 23.1623 64.0462 23.1607 63.4595C23.1607 63.0734 23.1209 62.7519 23.0414 62.495C22.9635 62.2382 22.8525 62.0451 22.7083 61.9158C22.5658 61.7866 22.3975 61.7219 22.2037 61.7219C21.9136 61.7219 21.6816 61.867 21.5076 62.157C21.3336 62.447 21.2458 62.8812 21.2441 63.4595C21.2441 63.8506 21.2831 64.1771 21.361 64.4389C21.4405 64.6991 21.5524 64.8946 21.6966 65.0256C21.8407 65.1548 22.0098 65.2195 22.2037 65.2195Z" fill="white"/>
<path d="M41.5 164C49 157.5 68.2 145.3 85 148.5C106 152.5 112.5 160.5 133.5 148.5C154.5 136.5 156.5 122.5 183.5 118.5C210.5 114.5 239.5 116 254 128.5C268.5 141 275 150.5 300 153" stroke="#01D1FF" stroke-opacity="0.97" stroke-width="3"/>
<line y1="37.5" x2="300" y2="37.5" stroke="white" stroke-opacity="0.17"/>
<circle cx="300" cy="44" r="9" fill="#0FF542" fill-opacity="0.38"/>
<circle cx="299.5" cy="43.5" r="4" fill="#0FF542" stroke="white"/>
<circle cx="300" cy="153" r="9" fill="#00D1FF" fill-opacity="0.33"/>
<circle cx="299.5" cy="152.5" r="4" fill="#00D1FF" fill-opacity="0.97" stroke="white"/>
<circle cx="43" cy="161" r="9" fill="#00D1FF" fill-opacity="0.33"/>
<circle cx="42.5" cy="160.5" r="4" fill="#00D1FF" fill-opacity="0.97" stroke="white"/>
<defs>
<filter id="filter0_b_108_27" x="-18" y="-18" width="336" height="236" filterUnits="userSpaceOnUse" color-interpolation-filters="sRGB">
<feFlood flood-opacity="0" result="BackgroundImageFix"/>
<feGaussianBlur in="BackgroundImageFix" stdDeviation="9"/>
<feComposite in2="SourceAlpha" operator="in" result="effect1_backgroundBlur_108_27"/>
<feBlend mode="normal" in="SourceGraphic" in2="effect1_backgroundBlur_108_27" result="shape"/>
</filter>
</defs>
</svg>
