<svg width="40" height="33" viewBox="0 0 40 33" fill="none" xmlns="http://www.w3.org/2000/svg">
<path d="M37.8669 2.20119C36.3312 3.28449 34.6307 4.11304 32.8311 4.65494C31.8653 3.54435 30.5816 2.7572 29.1538 2.39993C27.7259 2.04267 26.2228 2.13254 24.8478 2.65738C23.4727 3.18222 22.2919 4.11672 21.4653 5.33448C20.6386 6.55224 20.2059 7.9945 20.2256 9.46622V11.07C17.4072 11.1431 14.6145 10.518 12.0961 9.25043C9.57781 7.98287 7.41205 6.11217 5.79175 3.80495C5.79175 3.80495 -0.623291 18.2388 13.8105 24.6538C10.5076 26.8958 6.57303 28.02 2.58423 27.8613C17.0181 35.8801 34.6594 27.8613 34.6594 9.4181C34.6579 8.97138 34.615 8.52576 34.5311 8.08698C36.1679 6.47279 37.323 4.43476 37.8669 2.20119V2.20119Z" stroke="#01D1FF" stroke-opacity="0.97" stroke-width="3.20752" stroke-linecap="round" stroke-linejoin="round"/>
</svg>
