<svg width="39" height="39" viewBox="0 0 39 39" fill="none" xmlns="http://www.w3.org/2000/svg">
<g clip-path="url(#clip0_337_366)">
<path d="M36.6194 10.6863C36.4289 9.92515 36.0409 9.22777 35.4946 8.66458C34.9483 8.1014 34.2631 7.69235 33.5081 7.47876C30.7496 6.80518 19.7158 6.80518 19.7158 6.80518C19.7158 6.80518 8.68189 6.80518 5.92343 7.54291C5.16845 7.7565 4.48321 8.16555 3.93692 8.72874C3.39063 9.29192 3.00264 9.9893 2.81213 10.7504C2.30729 13.5499 2.06035 16.3897 2.0744 19.2343C2.05641 22.1003 2.30337 24.9618 2.81213 27.7824C3.02216 28.5198 3.41885 29.1907 3.96386 29.7301C4.50888 30.2695 5.18381 30.6592 5.92343 30.8616C8.68189 31.5993 19.7158 31.5993 19.7158 31.5993C19.7158 31.5993 30.7496 31.5993 33.5081 30.8616C34.2631 30.648 34.9483 30.2389 35.4946 29.6757C36.0409 29.1126 36.4289 28.4152 36.6194 27.6541C37.1203 24.8757 37.3673 22.0575 37.3571 19.2343C37.3751 16.3683 37.1282 13.5068 36.6194 10.6863V10.6863Z" stroke="#01D1FF" stroke-opacity="0.97" stroke-width="3.20752" stroke-linecap="round" stroke-linejoin="round"/>
<path d="M16.1074 24.4783L25.329 19.234L16.1074 13.9897V24.4783Z" stroke="#01D1FF" stroke-opacity="0.97" stroke-width="3.20752" stroke-linecap="round" stroke-linejoin="round"/>
</g>
<defs>
<clipPath id="clip0_337_366">
<rect width="38.4902" height="38.4902" fill="white" transform="translate(0.470703 0.390137)"/>
</clipPath>
</defs>
</svg>
